<svg xmlns="http://www.w3.org/2000/svg" width="64" height="64" fill="none" viewBox="0 0 64 64">
  <defs>
    <linearGradient id="frame" x1="12" x2="52" y1="9" y2="55" gradientUnits="userSpaceOnUse">
      <stop offset="0" stop-color="#f7e7b5"/>
      <stop offset=".42" stop-color="#d4af37"/>
      <stop offset="1" stop-color="#8d6916"/>
    </linearGradient>
    <linearGradient id="core" x1="18" x2="46" y1="15" y2="49" gradientUnits="userSpaceOnUse">
      <stop offset="0" stop-color="#161616"/>
      <stop offset="1" stop-color="#050505"/>
    </linearGradient>
  </defs>
  <path d="M32 5 48 11v15c0 11.9-7.3 22.7-16 29-8.7-6.3-16-17.1-16-29V11l16-6Z" fill="url(#frame)"/>
  <path d="M32 10.2 44 14.5V26c0 9.9-5.7 18.9-12 24.3C25.7 44.9 20 35.9 20 26V14.5l12-4.3Z" fill="url(#core)"/>
  <path d="M22.5 21h19" stroke="#f7e7b5" stroke-linecap="round" stroke-opacity=".62" stroke-width="1.7"/>
  <path d="m26 17.9 2.4-3.8 3.6 2.8 3.6-2.8 2.4 3.8" fill="none" stroke="#f7e7b5" stroke-linecap="round" stroke-linejoin="round" stroke-width="1.6"/>
  <path d="M25 42.8V25.7h7c4.1 0 6.5 2.2 6.5 5.8 0 3.8-2.4 6-6.5 6h-2.8v5.3h-4.2Zm4.2-8.7h2.2c2.1 0 3.4-.8 3.4-2.6s-1.3-2.6-3.4-2.6h-2.2v5.2Z" fill="#f5da86"/>
  <path d="M39.4 42.8V25.7h4.2v17.1h-4.2Z" fill="#f5da86"/>
</svg>
