<svg xmlns="http://www.w3.org/2000/svg" width="360" height="96" fill="none" viewBox="0 0 360 96">
  <defs>
    <linearGradient id="crestFrame" x1="17" x2="79" y1="11" y2="82" gradientUnits="userSpaceOnUse">
      <stop offset="0" stop-color="#f7e7b5"/>
      <stop offset=".42" stop-color="#d4af37"/>
      <stop offset="1" stop-color="#8d6916"/>
    </linearGradient>
    <linearGradient id="crestCore" x1="23" x2="73" y1="18" y2="76" gradientUnits="userSpaceOnUse">
      <stop offset="0" stop-color="#161616"/>
      <stop offset="1" stop-color="#050505"/>
    </linearGradient>
    <linearGradient id="wordGold" x1="138" x2="263" y1="27" y2="63" gradientUnits="userSpaceOnUse">
      <stop offset="0" stop-color="#f3df9a"/>
      <stop offset=".5" stop-color="#d4af37"/>
      <stop offset="1" stop-color="#9e7714"/>
    </linearGradient>
  </defs>
  <path d="M48 7 71 15v21c0 16.5-9.9 31.4-23 40-13.1-8.6-23-23.5-23-40V15L48 7Z" fill="url(#crestFrame)"/>
  <path d="M48 13 66 19v17c0 13.7-8 26.1-18 33.2-10-7.1-18-19.5-18-33.2V19l18-6Z" fill="url(#crestCore)"/>
  <path d="M33 28.5h30" stroke="#f7e7b5" stroke-linecap="round" stroke-opacity=".62" stroke-width="2"/>
  <path d="m38.4 24.4 3.4-5.1 6.1 4.1 6.1-4.1 3.4 5.1" fill="none" stroke="#f7e7b5" stroke-linecap="round" stroke-linejoin="round" stroke-width="2"/>
  <path d="M36 57.8V34.6h9.4c5.5 0 8.8 3 8.8 8 0 5.1-3.3 8.1-8.8 8.1H41v7.1h-5Zm5-11.2h3.4c3 0 4.8-1.2 4.8-4 0-2.6-1.8-3.9-4.8-3.9H41v7.9Z" fill="#f5da86"/>
  <path d="M57.2 57.8V34.6h5v23.2h-5Z" fill="#f5da86"/>
  <path d="M104 29.5h18.5" stroke="#9d7a1a" stroke-linecap="round" stroke-opacity=".7" stroke-width="1.4"/>
  <text fill="#f3efdf" font-family="Georgia, 'Times New Roman', serif" font-size="13" letter-spacing="6.2" x="103" y="23">PRESTIGE</text>
  <text fill="url(#wordGold)" font-family="Georgia, 'Times New Roman', serif" font-size="34" font-weight="700" letter-spacing="4.6" x="101" y="58">MOTORS</text>
  <path d="M105 67.5h160" stroke="#7e6218" stroke-linecap="round" stroke-opacity=".85" stroke-width="1.4"/>
  <text fill="#9f9373" font-family="Georgia, 'Times New Roman', serif" font-size="11.5" letter-spacing="8" x="103" y="82">MIAMI</text>
</svg>
